<svg id="Capa_1" enable-background="new 0 0 512 512" height="512" viewBox="0 0 512 512" width="512" xmlns="http://www.w3.org/2000/svg"><g><path d="m376 121h30c10.958 0 15-6.709 15-15v-23.789l4.395 4.395c5.859 5.859 15.352 5.859 21.211 0s5.859-15.352 0-21.211l-30-30c-4.277-4.292-10.708-5.596-16.348-3.252-5.611 2.314-9.258 7.793-9.258 13.857v45h-15c-8.291 0-15 6.709-15 15s6.709 15 15 15z"/><path d="m15 271h31c8.291 0 15-6.709 15-15v-23.789l4.395 4.395c5.859 5.859 15.352 5.859 21.211 0s5.859-15.352 0-21.211l-30-30c-4.292-4.292-10.723-5.552-16.348-3.252-5.611 2.314-9.258 7.793-9.258 13.857v45h-16c-8.291 0-15 6.709-15 15s6.709 15 15 15z"/><path d="m497 151h-15v-15c0-8.291-6.709-15-15-15s-15 6.709-15 15v15h-15c-8.291 0-15 6.709-15 15s6.709 15 15 15h15v15c0 8.291 6.709 15 15 15s15-6.709 15-15v-15h15c8.291 0 15-6.709 15-15s-6.709-15-15-15z"/><path d="m76 391c8.291 0 15-6.709 15-15v-15h15c8.291 0 15-6.709 15-15s-6.709-15-15-15h-15v-15c0-8.291-6.709-15-15-15s-15 6.709-15 15v15h-15c-8.291 0-15 6.709-15 15s6.709 15 15 15h15v15c0 8.291 6.709 15 15 15z"/><path d="m497 482h-482c-8.291 0-15 6.709-15 15s6.709 15 15 15h482c8.291 0 15-6.709 15-15s-6.709-15-15-15z"/><path d="m196 452v-25.137c0-33.164 16.348-65.292 43.726-84.291 19.878 49.014 49.292 94.847 85.093 130.662 5.834 5.819 13.48 8.756 21.145 8.765 7.663.011 15.344-2.908 21.248-8.795 11.704-11.689 11.704-30.732 0-42.422-61.784-61.756-79.483-130.914-81.212-134.645v-81.68c44.15 10.239 78.354 43.74 89.297 87.437l1.611 6.431c3.97 15.762 20.449 25.708 36.431 21.768 16.076-4.072 25.794-20.327 21.753-36.401l-1.597-6.387c-20.068-80.26-91.846-136.305-174.565-136.305-.531 0-1.035-.13-1.564-.137 32.446-.747 58.634-27.241 58.634-59.863 0-33.091-26.909-60-60-60s-60 26.909-60 60c0 28.781 20.37 52.837 47.444 58.63-50.222-6.608-91.998-44.365-102.142-95.074l-5.889-30.473c-7.899-39.247-66.672-27.096-58.828 11.763l5.889 30.473c14.239 71.192 71.91 128.084 143.526 141.502v73.14c-55.518 27.378-90 83.91-90 145.902v25.137c0 16.538 13.462 30 30 30s30-13.462 30-30z"/></g></svg>