<svg width="30" height="30" viewBox="0 0 30 30" fill="none" xmlns="http://www.w3.org/2000/svg">
<path fill-rule="evenodd" clip-rule="evenodd" d="M13.3535 19.3535C13.3465 19.361 13.152 19.574 13.0545 20H17.5C17.776 20 18 20.2235 18 20.5C18 20.7765 17.776 21 17.5 21H12.5C12.224 21 12 20.7765 12 20.5C12 19.425 12.4875 18.8195 12.6195 18.6745L16.105 14.193C16.118 14.1765 16.132 14.161 16.1465 14.1465C16.1535 14.139 17 13.263 17 12C17 10.897 16.103 10 15 10C13.897 10 13 10.897 13 12C13 12.2765 12.776 12.5 12.5 12.5C12.224 12.5 12 12.2765 12 12C12 10.3455 13.3455 9 15 9C16.6545 9 18 10.3455 18 12C18 13.568 17.051 14.645 16.8785 14.8275L13.395 19.307C13.382 19.323 13.368 19.339 13.3535 19.3535ZM15 29C7.2805 29 1 22.7195 1 15C1 7.2805 7.2805 1 15 1C22.7195 1 29 7.2805 29 15C29 22.7195 22.7195 29 15 29ZM15 0C6.729 0 0 6.729 0 15C0 23.271 6.729 30 15 30C23.271 30 30 23.271 30 15C30 6.729 23.271 0 15 0Z" fill="#E83A44"/>
</svg>
