<svg width="30" height="30" viewBox="0 0 30 30" fill="none" xmlns="http://www.w3.org/2000/svg">
<path fill-rule="evenodd" clip-rule="evenodd" d="M16 9.5V20.5C16 20.7765 15.776 21 15.5 21C15.224 21 15 20.7765 15 20.5V10.707L12.8535 12.8535C12.658 13.049 12.342 13.049 12.1465 12.8535C11.951 12.658 11.951 12.342 12.1465 12.1465L15.1465 9.1465C15.2895 9.003 15.504 8.9595 15.6915 9.038C15.878 9.115 16 9.298 16 9.5ZM15 29C7.2805 29 1 22.7195 1 15C1 7.2805 7.2805 1 15 1C22.7195 1 29 7.2805 29 15C29 22.7195 22.7195 29 15 29ZM15 0C6.729 0 0 6.729 0 15C0 23.271 6.729 30 15 30C23.271 30 30 23.271 30 15C30 6.729 23.271 0 15 0Z" fill="#E83A44"/>
</svg>
