<svg width="30" height="30" viewBox="0 0 30 30" fill="none" xmlns="http://www.w3.org/2000/svg">
<path fill-rule="evenodd" clip-rule="evenodd" d="M18 18C18 19.6545 16.6545 21 15 21C13.3455 21 12 19.6545 12 18C12 17.7235 12.224 17.5 12.5 17.5C12.776 17.5 13 17.7235 13 18C13 19.103 13.897 20 15 20C16.103 20 17 19.103 17 18C17 16.897 16.103 16 15 16C14.833 16 14.677 15.9165 14.584 15.7775C14.491 15.638 14.474 15.462 14.5385 15.3075L16.75 10H12.5C12.224 10 12 9.7765 12 9.5C12 9.2235 12.224 9 12.5 9H17.5C17.667 9 17.823 9.0835 17.916 9.2225C18.009 9.362 18.026 9.538 17.9615 9.6925L15.7145 15.086C17.025 15.407 18 16.592 18 18ZM15 29C7.2805 29 1 22.7195 1 15C1 7.2805 7.2805 1 15 1C22.7195 1 29 7.2805 29 15C29 22.7195 22.7195 29 15 29ZM15 0C6.729 0 0 6.729 0 15C0 23.271 6.729 30 15 30C23.271 30 30 23.271 30 15C30 6.729 23.271 0 15 0Z" fill="#E83A44"/>
</svg>
